<svg width="90" height="89" viewBox="0 0 90 89" fill="none" xmlns="http://www.w3.org/2000/svg">
<path d="M50.4688 18.5312V53.5938H56.9375C58.4792 53.5938 59.5729 53.8958 60.2188 54.5C60.8854 55.0833 61.2188 55.8542 61.2188 56.8125C61.2188 57.75 60.8854 58.5208 60.2188 59.125C59.5729 59.7083 58.4792 60 56.9375 60H37.5938C36.0521 60 34.9479 59.7083 34.2812 59.125C33.6354 58.5208 33.3125 57.7396 33.3125 56.7812C33.3125 55.8438 33.6354 55.0833 34.2812 54.5C34.9479 53.8958 36.0521 53.5938 37.5938 53.5938H44.0625V26.875L38.3438 28.375C37.4271 28.625 36.7396 28.75 36.2812 28.75C35.4688 28.75 34.7604 28.4271 34.1562 27.7812C33.5729 27.1354 33.2812 26.3438 33.2812 25.4062C33.2812 24.5521 33.5 23.8854 33.9375 23.4062C34.375 22.9062 35.2917 22.4688 36.6875 22.0938L50.4688 18.5312Z" fill="black"/>
<path d="M53.1735 2.5H44.5H35.7254C23.3299 2.5 11.9983 9.50332 6.45492 20.5902C4.18286 25.1343 3 30.145 3 35.2254V49.2302C3 54.3507 4.11028 59.4426 6.22916 64.1042C7.40039 66.6809 8.88379 69.1248 10.6325 71.3504C16.0207 78.2082 23.7488 82.838 32.3375 84.3537L37.2205 85.2154C42.0401 86.0659 46.9674 86.1104 51.8015 85.3471L54.5935 84.9063C66.2162 83.0711 76.3557 76.0078 82.1049 65.7412C85.3146 60.0097 87 53.5505 87 46.9815V36.3265C87 30.5391 85.5151 24.8484 82.6873 19.7988C76.705 9.11614 65.4171 2.5 53.1735 2.5Z" stroke="#FBBF00" stroke-width="5"/>
</svg>
