<svg width="90" height="89" viewBox="0 0 90 89" fill="none" xmlns="http://www.w3.org/2000/svg">
<path d="M41.2188 53.5938H55.25C56.0208 52.9688 56.75 52.6562 57.4375 52.6562C58.4167 52.6562 59.1875 52.9792 59.75 53.625C60.3333 54.2708 60.625 55.375 60.625 56.9375V60H31.4375V53.2188C42.9792 43.6979 49.9479 37.5729 52.3438 34.8438C53.5521 33.4479 54.1562 32.125 54.1562 30.875C54.1562 29.3125 53.4688 27.9375 52.0938 26.75C50.7396 25.5417 48.9271 24.9375 46.6562 24.9375C44.3646 24.9375 42.4583 25.6042 40.9375 26.9375C40.1458 27.6458 39.5104 28.6979 39.0312 30.0938C38.7396 30.9688 38.3333 31.5938 37.8125 31.9688C37.3125 32.3438 36.6875 32.5312 35.9375 32.5312C35.0625 32.5312 34.3021 32.2188 33.6562 31.5938C33.0312 30.9688 32.7188 30.2396 32.7188 29.4062C32.7188 28.1562 33.2917 26.5938 34.4375 24.7188C35.6042 22.8438 37.2917 21.3438 39.5 20.2188C41.7292 19.0938 44.1458 18.5312 46.75 18.5312C50.7917 18.5312 54.1042 19.7604 56.6875 22.2188C59.2708 24.6562 60.5625 27.6146 60.5625 31.0938C60.5625 32.8646 60.1875 34.5104 59.4375 36.0312C58.7083 37.5312 56.9375 39.6146 54.125 42.2812C51.9167 44.3854 47.6146 48.1562 41.2188 53.5938Z" fill="black"/>
<path d="M53.1735 2.5H44.5H35.7254C23.3299 2.5 11.9983 9.50332 6.45492 20.5902C4.18286 25.1343 3 30.145 3 35.2254V49.2302C3 54.3507 4.11028 59.4426 6.22916 64.1042C7.40039 66.6809 8.88379 69.1248 10.6325 71.3504C16.0207 78.2082 23.7488 82.838 32.3375 84.3537L37.2205 85.2154C42.0401 86.0659 46.9674 86.1104 51.8015 85.3471L54.5935 84.9063C66.2162 83.0711 76.3557 76.0078 82.1049 65.7412C85.3146 60.0097 87 53.5505 87 46.9815V36.3265C87 30.5391 85.5151 24.8484 82.6873 19.7988C76.705 9.11614 65.4171 2.5 53.1735 2.5Z" stroke="#FBBF00" stroke-width="5"/>
</svg>
