<svg width="90" height="89" viewBox="0 0 90 89" fill="none" xmlns="http://www.w3.org/2000/svg">
<path d="M56.3438 38.5938C58.2396 39.8854 59.6562 41.3854 60.5938 43.0938C61.5312 44.7812 62 46.6771 62 48.7812C62 51.0521 61.375 53.1562 60.125 55.0938C58.8958 57.0104 57.1042 58.4688 54.75 59.4688C52.3958 60.4479 49.3125 60.9375 45.5 60.9375C40.5417 60.9375 36.8125 60.1667 34.3125 58.625C32.9167 57.75 32.2188 56.7083 32.2188 55.5C32.2188 54.5833 32.5208 53.8125 33.125 53.1875C33.75 52.5417 34.5 52.2188 35.375 52.2188C35.9792 52.2188 36.6042 52.4271 37.25 52.8438C38.1667 53.4688 39.0312 53.8854 39.8438 54.0938C41.0938 54.3854 42.8125 54.5312 45 54.5312C48.7292 54.5312 51.4271 54.0521 53.0938 53.0938C54.7604 52.1146 55.5938 50.7396 55.5938 48.9688C55.5938 47.6562 55.1042 46.3958 54.125 45.1875C53.1667 43.9583 51.875 43.0104 50.25 42.3438C49.3125 41.9688 47.7292 41.7083 45.5 41.5625C44.4375 41.5 43.6146 41.1771 43.0312 40.5938C42.4688 39.9896 42.1875 39.25 42.1875 38.375C42.1875 37.4583 42.5 36.6875 43.125 36.0625C43.75 35.4375 44.5417 35.125 45.5 35.125C47.625 35.125 48.7604 35.1146 48.9062 35.0938C49.7396 35.0104 50.5729 34.7396 51.4062 34.2812C52.2396 33.8229 52.9062 33.1979 53.4062 32.4062C53.9271 31.5938 54.1875 30.7604 54.1875 29.9062C54.1875 28.5521 53.5833 27.3854 52.375 26.4062C51.1875 25.4062 49.3958 24.9062 47 24.9062C43.9167 24.9062 41.5625 25.8021 39.9375 27.5938C39.4583 28.1146 39.0729 28.4479 38.7812 28.5938C38.3438 28.8229 37.8542 28.9375 37.3125 28.9375C36.4375 28.9375 35.6875 28.625 35.0625 28C34.4375 27.375 34.125 26.6042 34.125 25.6875C34.125 24.25 35.0833 22.8542 37 21.5C39.7917 19.5208 43.2812 18.5312 47.4688 18.5312C51.4271 18.5312 54.6042 19.6562 57 21.9062C59.3958 24.1562 60.5938 26.8646 60.5938 30.0312C60.5938 31.6771 60.2396 33.2188 59.5312 34.6562C58.8229 36.0729 57.7604 37.3854 56.3438 38.5938Z" fill="black"/>
<path d="M36.8265 2.5H45.5H54.2746C66.6701 2.5 78.0017 9.50332 83.5451 20.5902C85.8171 25.1343 87 30.145 87 35.2254V49.2302C87 54.3507 85.8897 59.4426 83.7708 64.1042C82.5996 66.6809 81.1162 69.1248 79.3675 71.3504C73.9793 78.2082 66.2512 82.838 57.6625 84.3537L52.7795 85.2154C47.9599 86.0659 43.0326 86.1104 38.1985 85.3471L35.4065 84.9063C23.7838 83.0711 13.6443 76.0078 7.89509 65.7412C4.68543 60.0097 3 53.5505 3 46.9815V36.3265C3 30.5391 4.4849 24.8484 7.31268 19.7988C13.295 9.11614 24.5829 2.5 36.8265 2.5Z" stroke="#FBBF00" stroke-width="5"/>
</svg>
