<svg width="1440" height="246" viewBox="0 0 1440 246" fill="none" xmlns="http://www.w3.org/2000/svg">
<rect y="24" width="1440" height="200" fill="#FFDB0C"/>
<path d="M1088.83 221.278L1178.58 57.8133L1161.75 24.6578L1072.01 188.123L1088.83 221.278ZM1144.94 176.276C1148.46 183.208 1153.05 188.691 1158.72 192.724C1164.51 196.691 1171.12 198.849 1178.53 199.198C1185.88 199.417 1193.61 197.469 1201.72 193.354C1209.83 189.239 1215.9 184.185 1219.93 178.192C1224.02 172.002 1226.18 165.397 1226.4 158.378C1226.62 151.358 1224.97 144.382 1221.46 137.45C1217.94 130.518 1213.28 125.069 1207.49 121.102C1201.69 117.135 1195.12 115.043 1187.77 114.824C1180.49 114.408 1172.79 116.258 1164.68 120.373C1156.57 124.488 1150.47 129.64 1146.38 135.83C1142.21 141.889 1140.02 148.429 1139.8 155.449C1139.71 162.402 1141.43 169.344 1144.94 176.276ZM1166.13 165.524C1165 163.301 1165.19 160.742 1166.68 157.847C1168.23 154.755 1172.28 151.55 1178.82 148.231C1185.36 144.913 1190.27 143.572 1193.55 144.208C1196.9 144.647 1199.14 145.979 1200.27 148.202C1201.33 150.295 1201.08 152.887 1199.53 155.979C1198.1 159.005 1194.12 162.177 1187.58 165.495C1181.04 168.814 1176.06 170.188 1172.65 169.618C1169.37 168.982 1167.19 167.617 1166.13 165.524ZM1029.13 108.486C1032.65 115.418 1037.24 120.9 1042.91 124.934C1048.7 128.9 1055.31 131.058 1062.72 131.408C1070.07 131.627 1077.8 129.678 1085.9 125.563C1094.01 121.449 1100.08 116.395 1104.12 110.402C1108.21 104.212 1110.37 97.6069 1110.59 90.5872C1110.81 83.5675 1109.16 76.5917 1105.64 69.6598C1102.13 62.7279 1097.47 57.2786 1091.67 53.3119C1085.88 49.3452 1079.31 47.2525 1071.96 47.0338C1064.68 46.6179 1056.98 48.4674 1048.87 52.5823C1040.76 56.6973 1034.66 61.8497 1030.56 68.0398C1026.4 74.099 1024.21 80.6385 1023.99 87.6582C1023.9 94.6115 1025.61 101.554 1029.13 108.486ZM1050.32 97.7342C1049.19 95.5107 1049.37 92.9515 1050.86 90.0566C1052.42 86.9645 1056.47 83.7592 1063.01 80.4407C1069.55 77.1222 1074.46 75.7812 1077.74 76.4176C1081.09 76.8569 1083.33 78.1882 1084.46 80.4117C1085.52 82.5043 1085.27 85.0967 1083.71 88.1888C1082.29 91.2145 1078.31 94.3866 1071.77 97.7051C1065.23 101.024 1060.25 102.398 1056.84 101.828C1053.55 101.191 1051.38 99.8268 1050.32 97.7342Z" fill="black" fill-opacity="0.1"/>
<path d="M564.898 107.576C562.562 107.576 560.242 107.272 557.938 106.664C555.666 106.024 553.714 105.128 552.082 103.976L555.154 98.024C556.434 98.952 557.906 99.688 559.57 100.232C561.266 100.776 562.978 101.048 564.706 101.048C566.658 101.048 568.194 100.664 569.314 99.896C570.434 99.128 570.994 98.056 570.994 96.68C570.994 95.816 570.77 95.048 570.322 94.376C569.874 93.704 569.074 93.192 567.922 92.84C566.802 92.488 565.218 92.312 563.17 92.312H554.578L556.306 73.4H576.802V79.64H559.09L563.122 76.088L561.922 89.576L557.89 86.024H564.994C568.322 86.024 570.994 86.488 573.01 87.416C575.058 88.312 576.546 89.544 577.474 91.112C578.402 92.68 578.866 94.456 578.866 96.44C578.866 98.424 578.37 100.264 577.378 101.96C576.386 103.624 574.85 104.984 572.77 106.04C570.722 107.064 568.098 107.576 564.898 107.576ZM596.42 107.576C593.668 107.576 591.204 106.904 589.028 105.56C586.852 104.184 585.14 102.2 583.892 99.608C582.644 97.016 582.02 93.88 582.02 90.2C582.02 86.52 582.644 83.384 583.892 80.792C585.14 78.2 586.852 76.232 589.028 74.888C591.204 73.512 593.668 72.824 596.42 72.824C599.204 72.824 601.668 73.512 603.812 74.888C605.988 76.232 607.7 78.2 608.948 80.792C610.196 83.384 610.82 86.52 610.82 90.2C610.82 93.88 610.196 97.016 608.948 99.608C607.7 102.2 605.988 104.184 603.812 105.56C601.668 106.904 599.204 107.576 596.42 107.576ZM596.42 101C597.732 101 598.868 100.632 599.828 99.896C600.82 99.16 601.588 97.992 602.132 96.392C602.708 94.792 602.996 92.728 602.996 90.2C602.996 87.672 602.708 85.608 602.132 84.008C601.588 82.408 600.82 81.24 599.828 80.504C598.868 79.768 597.732 79.4 596.42 79.4C595.14 79.4 594.004 79.768 593.012 80.504C592.052 81.24 591.284 82.408 590.708 84.008C590.164 85.608 589.892 87.672 589.892 90.2C589.892 92.728 590.164 94.792 590.708 96.392C591.284 97.992 592.052 99.16 593.012 99.896C594.004 100.632 595.14 101 596.42 101ZM619.447 107L642.391 73.4H648.103L625.159 107H619.447ZM622.375 91.544C620.743 91.544 619.303 91.176 618.055 90.44C616.807 89.672 615.815 88.6 615.079 87.224C614.375 85.816 614.023 84.168 614.023 82.28C614.023 80.392 614.375 78.76 615.079 77.384C615.815 76.008 616.807 74.936 618.055 74.168C619.303 73.4 620.743 73.016 622.375 73.016C624.007 73.016 625.447 73.4 626.695 74.168C627.943 74.936 628.919 76.008 629.623 77.384C630.327 78.76 630.679 80.392 630.679 82.28C630.679 84.168 630.327 85.816 629.623 87.224C628.919 88.6 627.943 89.672 626.695 90.44C625.447 91.176 624.007 91.544 622.375 91.544ZM622.375 87.608C623.431 87.608 624.279 87.176 624.919 86.312C625.559 85.416 625.879 84.072 625.879 82.28C625.879 80.488 625.559 79.16 624.919 78.296C624.279 77.4 623.431 76.952 622.375 76.952C621.351 76.952 620.503 77.4 619.831 78.296C619.191 79.16 618.871 80.488 618.871 82.28C618.871 84.04 619.191 85.368 619.831 86.264C620.503 87.16 621.351 87.608 622.375 87.608ZM645.175 107.384C643.575 107.384 642.135 107.016 640.855 106.28C639.607 105.512 638.631 104.44 637.927 103.064C637.223 101.656 636.871 100.008 636.871 98.12C636.871 96.232 637.223 94.6 637.927 93.224C638.631 91.848 639.607 90.776 640.855 90.008C642.135 89.24 643.575 88.856 645.175 88.856C646.839 88.856 648.295 89.24 649.543 90.008C650.791 90.776 651.767 91.848 652.471 93.224C653.175 94.6 653.527 96.232 653.527 98.12C653.527 100.008 653.175 101.656 652.471 103.064C651.767 104.44 650.791 105.512 649.543 106.28C648.295 107.016 646.839 107.384 645.175 107.384ZM645.175 103.448C646.231 103.448 647.079 103.016 647.719 102.152C648.359 101.256 648.679 99.912 648.679 98.12C648.679 96.36 648.359 95.032 647.719 94.136C647.079 93.24 646.231 92.792 645.175 92.792C644.151 92.792 643.303 93.24 642.631 94.136C641.991 95 641.671 96.328 641.671 98.12C641.671 99.912 641.991 101.256 642.631 102.152C643.303 103.016 644.151 103.448 645.175 103.448ZM688.478 107.576C685.886 107.576 683.47 107.16 681.23 106.328C679.022 105.464 677.102 104.248 675.47 102.68C673.838 101.112 672.558 99.272 671.63 97.16C670.734 95.048 670.286 92.728 670.286 90.2C670.286 87.672 670.734 85.352 671.63 83.24C672.558 81.128 673.838 79.288 675.47 77.72C677.134 76.152 679.07 74.952 681.278 74.12C683.486 73.256 685.902 72.824 688.526 72.824C691.438 72.824 694.062 73.336 696.398 74.36C698.766 75.352 700.75 76.824 702.35 78.776L697.358 83.384C696.206 82.072 694.926 81.096 693.518 80.456C692.11 79.784 690.574 79.448 688.91 79.448C687.342 79.448 685.902 79.704 684.59 80.216C683.278 80.728 682.142 81.464 681.182 82.424C680.222 83.384 679.47 84.52 678.926 85.832C678.414 87.144 678.158 88.6 678.158 90.2C678.158 91.8 678.414 93.256 678.926 94.568C679.47 95.88 680.222 97.016 681.182 97.976C682.142 98.936 683.278 99.672 684.59 100.184C685.902 100.696 687.342 100.952 688.91 100.952C690.574 100.952 692.11 100.632 693.518 99.992C694.926 99.32 696.206 98.312 697.358 96.968L702.35 101.576C700.75 103.528 698.766 105.016 696.398 106.04C694.062 107.064 691.422 107.576 688.478 107.576ZM729.162 107L718.698 90.824L724.986 87.032L737.994 107H729.162ZM707.322 107V73.4H715.05V107H707.322ZM712.794 93.464V86.984H724.506V93.464H712.794ZM725.706 91.064L718.554 90.2L729.45 73.4H737.658L725.706 91.064ZM741.637 107V73.4H749.365V95.288L765.397 73.4H772.693V107H765.013V85.16L748.981 107H741.637ZM803.096 103.544V79.736H791.576L791.432 84.632C791.336 86.712 791.192 88.68 791 90.536C790.84 92.392 790.584 94.088 790.232 95.624C789.88 97.128 789.416 98.408 788.84 99.464C788.296 100.52 787.608 101.272 786.776 101.72L778.472 100.664C779.624 100.696 780.568 100.296 781.304 99.464C782.072 98.632 782.68 97.464 783.128 95.96C783.576 94.424 783.896 92.632 784.088 90.584C784.312 88.536 784.472 86.312 784.568 83.912L784.952 73.4H810.776V103.544H803.096ZM777.368 113.96L777.416 100.664H815.48V113.96H808.28V107H784.568V113.96H777.368ZM842.459 107L831.995 90.824L838.283 87.032L851.291 107H842.459ZM820.619 107V73.4H828.347V107H820.619ZM826.091 93.464V86.984H837.803V93.464H826.091ZM839.003 91.064L831.851 90.2L842.747 73.4H850.955L839.003 91.064ZM850.439 107L865.415 73.4H873.095L888.119 107H879.959L867.671 77.336H870.743L858.407 107H850.439ZM857.927 99.8L859.991 93.896H877.271L879.383 99.8H857.927ZM451.575 142.4H459.351V176H451.575V142.4ZM436.311 176H428.535V142.4H436.311V176ZM452.151 162.224H435.735V155.648H452.151V162.224ZM463.978 176L478.954 142.4H486.634L501.658 176H493.498L481.21 146.336H484.282L471.946 176H463.978ZM471.466 168.8L473.53 162.896H490.81L492.922 168.8H471.466ZM520.859 169.664C522.715 170.208 524.267 170.368 525.515 170.144C526.795 169.888 527.931 168.992 528.923 167.456L530.555 165.008L531.275 164.192L542.411 142.4H550.043L535.739 168.992C534.459 171.392 532.939 173.232 531.179 174.512C529.451 175.792 527.547 176.512 525.467 176.672C523.387 176.864 521.227 176.496 518.987 175.568L520.859 169.664ZM531.131 170.672L515.963 142.4H524.267L535.403 164.96L531.131 170.672ZM569.252 176.576C566.66 176.576 564.244 176.16 562.004 175.328C559.796 174.464 557.876 173.248 556.243 171.68C554.612 170.112 553.332 168.272 552.404 166.16C551.508 164.048 551.06 161.728 551.06 159.2C551.06 156.672 551.508 154.352 552.404 152.24C553.332 150.128 554.612 148.288 556.243 146.72C557.908 145.152 559.844 143.952 562.052 143.12C564.26 142.256 566.676 141.824 569.3 141.824C572.212 141.824 574.836 142.336 577.172 143.36C579.54 144.352 581.524 145.824 583.124 147.776L578.132 152.384C576.98 151.072 575.7 150.096 574.292 149.456C572.884 148.784 571.348 148.448 569.684 148.448C568.116 148.448 566.676 148.704 565.364 149.216C564.052 149.728 562.916 150.464 561.956 151.424C560.996 152.384 560.244 153.52 559.7 154.832C559.188 156.144 558.932 157.6 558.932 159.2C558.932 160.8 559.188 162.256 559.7 163.568C560.244 164.88 560.996 166.016 561.956 166.976C562.916 167.936 564.052 168.672 565.364 169.184C566.676 169.696 568.116 169.952 569.684 169.952C571.348 169.952 572.884 169.632 574.292 168.992C575.7 168.32 576.98 167.312 578.132 165.968L583.124 170.576C581.524 172.528 579.54 174.016 577.172 175.04C574.836 176.064 572.196 176.576 569.252 176.576ZM595.112 176V146.96L596.888 148.736H584.408V142.4H613.544V148.736H601.064L602.792 146.96V176H595.112ZM612.947 176L627.923 142.4H635.603L650.627 176H642.467L630.179 146.336H633.251L620.915 176H612.947ZM620.435 168.8L622.499 162.896H639.779L641.891 168.8H620.435ZM678.122 142.4H685.898V176H678.122V142.4ZM662.858 176H655.082V142.4H662.858V176ZM678.698 162.224H662.282V155.648H678.698V162.224ZM710.397 176.576C707.741 176.576 705.277 176.144 703.005 175.28C700.765 174.416 698.813 173.2 697.149 171.632C695.517 170.064 694.237 168.224 693.309 166.112C692.413 164 691.965 161.696 691.965 159.2C691.965 156.704 692.413 154.4 693.309 152.288C694.237 150.176 695.533 148.336 697.197 146.768C698.861 145.2 700.813 143.984 703.053 143.12C705.293 142.256 707.725 141.824 710.349 141.824C713.005 141.824 715.437 142.256 717.645 143.12C719.885 143.984 721.821 145.2 723.453 146.768C725.117 148.336 726.413 150.176 727.341 152.288C728.269 154.368 728.733 156.672 728.733 159.2C728.733 161.696 728.269 164.016 727.341 166.16C726.413 168.272 725.117 170.112 723.453 171.68C721.821 173.216 719.885 174.416 717.645 175.28C715.437 176.144 713.021 176.576 710.397 176.576ZM710.349 169.952C711.853 169.952 713.229 169.696 714.477 169.184C715.757 168.672 716.877 167.936 717.837 166.976C718.797 166.016 719.533 164.88 720.045 163.568C720.589 162.256 720.861 160.8 720.861 159.2C720.861 157.6 720.589 156.144 720.045 154.832C719.533 153.52 718.797 152.384 717.837 151.424C716.909 150.464 715.805 149.728 714.525 149.216C713.245 148.704 711.853 148.448 710.349 148.448C708.845 148.448 707.453 148.704 706.173 149.216C704.925 149.728 703.821 150.464 702.861 151.424C701.901 152.384 701.149 153.52 700.605 154.832C700.093 156.144 699.837 157.6 699.837 159.2C699.837 160.768 700.093 162.224 700.605 163.568C701.149 164.88 701.885 166.016 702.813 166.976C703.773 167.936 704.893 168.672 706.173 169.184C707.453 169.696 708.845 169.952 710.349 169.952ZM734.723 176V142.4H750.371C754.275 142.4 757.315 143.152 759.491 144.656C761.667 146.16 762.755 148.304 762.755 151.088C762.755 153.84 761.731 155.984 759.683 157.52C757.635 159.024 754.915 159.776 751.523 159.776L752.435 157.76C756.211 157.76 759.139 158.512 761.219 160.016C763.299 161.52 764.339 163.696 764.339 166.544C764.339 169.488 763.219 171.808 760.979 173.504C758.771 175.168 755.539 176 751.283 176H734.723ZM742.451 170.24H750.995C752.787 170.24 754.147 169.888 755.075 169.184C756.003 168.48 756.467 167.392 756.467 165.92C756.467 164.512 756.003 163.472 755.075 162.8C754.147 162.096 752.787 161.744 750.995 161.744H742.451V170.24ZM742.451 156.32H749.699C751.395 156.32 752.675 155.984 753.539 155.312C754.403 154.608 754.835 153.584 754.835 152.24C754.835 150.896 754.403 149.888 753.539 149.216C752.675 148.512 751.395 148.16 749.699 148.16H742.451V156.32ZM792.233 176L781.769 159.824L788.057 156.032L801.065 176H792.233ZM770.393 176V142.4H778.121V176H770.393ZM775.865 162.464V155.984H787.577V162.464H775.865ZM788.777 160.064L781.625 159.2L792.521 142.4H800.729L788.777 160.064ZM806.422 169.664C808.278 170.208 809.83 170.368 811.078 170.144C812.358 169.888 813.494 168.992 814.486 167.456L816.118 165.008L816.838 164.192L827.974 142.4H835.606L821.302 168.992C820.022 171.392 818.502 173.232 816.742 174.512C815.014 175.792 813.11 176.512 811.03 176.672C808.95 176.864 806.79 176.496 804.55 175.568L806.422 169.664ZM816.694 170.672L801.526 142.4H809.83L820.966 164.96L816.694 170.672ZM853.598 176V142.4H869.246C873.15 142.4 876.19 143.152 878.366 144.656C880.542 146.16 881.63 148.304 881.63 151.088C881.63 153.84 880.606 155.984 878.558 157.52C876.51 159.024 873.79 159.776 870.398 159.776L871.31 157.76C875.086 157.76 878.014 158.512 880.094 160.016C882.174 161.52 883.214 163.696 883.214 166.544C883.214 169.488 882.094 171.808 879.854 173.504C877.646 175.168 874.414 176 870.158 176H853.598ZM861.326 170.24H869.87C871.662 170.24 873.022 169.888 873.95 169.184C874.878 168.48 875.342 167.392 875.342 165.92C875.342 164.512 874.878 163.472 873.95 162.8C873.022 162.096 871.662 161.744 869.87 161.744H861.326V170.24ZM861.326 156.32H868.574C870.27 156.32 871.55 155.984 872.414 155.312C873.278 154.608 873.71 153.584 873.71 152.24C873.71 150.896 873.278 149.888 872.414 149.216C871.55 148.512 870.27 148.16 868.574 148.16H861.326V156.32ZM902.957 176V142.4H909.389L923.693 166.112H920.285L934.349 142.4H940.781L940.829 176H933.533L933.485 153.584H934.877L923.597 172.448H920.141L908.621 153.584H910.253V176H902.957ZM945.384 176L960.36 142.4H968.04L983.064 176H974.904L962.616 146.336H965.688L953.352 176H945.384ZM952.872 168.8L954.936 162.896H972.216L974.328 168.8H952.872ZM994.672 155.936H1010.85V161.984H994.672V155.936ZM995.248 169.76H1013.54V176H987.52V142.4H1012.91V148.64H995.248V169.76Z" fill="black"/>
</svg>
